<svg width="106" height="101" viewBox="0 0 106 101" fill="none" xmlns="http://www.w3.org/2000/svg">
<path d="M71.111 29.8889H8.88878C7.71004 29.8889 6.57958 30.3572 5.74608 31.1907C4.91259 32.0242 4.44434 33.1546 4.44434 34.3334V87.6667C4.44434 88.8454 4.91259 89.9759 5.74608 90.8094C6.57958 91.6429 7.71004 92.1111 8.88878 92.1111H71.111C72.2897 92.1111 73.4202 91.6429 74.2537 90.8094C75.0872 89.9759 75.5555 88.8454 75.5555 87.6667V34.3334C75.5555 33.1546 75.0872 32.0242 74.2537 31.1907C73.4202 30.3572 72.2897 29.8889 71.111 29.8889ZM19.8221 38.7778C21.1407 38.7778 22.4296 39.1688 23.5259 39.9013C24.6222 40.6339 25.4767 41.6751 25.9813 42.8932C26.4859 44.1114 26.6179 45.4519 26.3607 46.7451C26.1034 48.0383 25.4685 49.2262 24.5362 50.1585C23.6038 51.0909 22.4159 51.7258 21.1227 51.983C19.8295 52.2403 18.4891 52.1083 17.2709 51.6037C16.0527 51.0991 15.0115 50.2446 14.279 49.1483C13.5464 48.0519 13.1554 46.763 13.1554 45.4445C13.1554 43.6764 13.8578 41.9807 15.1081 40.7304C16.3583 39.4802 18.054 38.7778 19.8221 38.7778ZM13.3332 81V71.8889L26.6666 58.3778C27.0829 57.9639 27.6461 57.7316 28.2332 57.7316C28.8203 57.7316 29.3835 57.9639 29.7999 58.3778L35.5554 64L18.4888 81H13.3332ZM66.6666 81H24.7777L38.6221 67.1556L50.6221 55.1556C51.0385 54.7417 51.6017 54.5094 52.1888 54.5094C52.7759 54.5094 53.3391 54.7417 53.7555 55.1556L66.6666 68.0667V81Z" fill="#3E3E3E"/>
<path d="M104.269 24.312V29.4756H82.3403V24.312H104.269ZM96.0952 15.501V38.792H90.5361V15.501H96.0952Z" fill="#3E3E3E"/>
</svg>
