<svg width="15" height="15" viewBox="0 0 15 15" fill="none" xmlns="http://www.w3.org/2000/svg">
<path d="M10.3334 1.68744C10.5278 1.48679 10.7603 1.32682 11.0171 1.21686C11.274 1.1069 11.5501 1.04914 11.8295 1.04694C12.1089 1.04474 12.386 1.09815 12.6445 1.20406C12.9031 1.30997 13.138 1.46626 13.3356 1.66383C13.5331 1.8614 13.6894 2.09631 13.7953 2.35487C13.9013 2.61342 13.9547 2.89047 13.9525 3.16987C13.9503 3.44927 13.8925 3.72544 13.7825 3.9823C13.6726 4.23916 13.5126 4.47157 13.312 4.66601L12.487 5.49101L9.50839 2.51244L10.3334 1.68744ZM8.94054 3.0803L2.41179 9.60905C2.17607 9.84476 2.00464 10.1373 1.91464 10.4587L1.08589 13.4185C1.06675 13.4871 1.06618 13.5596 1.08426 13.6285C1.10234 13.6974 1.13842 13.7603 1.18879 13.8106C1.23916 13.861 1.30201 13.8971 1.37091 13.9151C1.43981 13.9332 1.51228 13.9327 1.58089 13.9135L4.54018 13.0848C4.86157 12.9948 5.15438 12.8236 5.39036 12.5876L11.9196 6.05941L8.94107 3.08084L8.94054 3.0803Z" fill="#41529F"/>
</svg>
