<svg width="36" height="36" viewBox="0 0 36 36" fill="none" xmlns="http://www.w3.org/2000/svg">
<path d="M17.9997 2C14.8849 2.0026 11.8977 3.23769 9.69053 5.4355C7.48336 7.6333 6.23558 10.6152 6.21973 13.73C6.21973 18.4 8.83973 22.31 10.7597 25.16L11.1097 25.68C13.02 28.4486 15.0693 31.1187 17.2497 33.68L18.0097 34.57L18.7697 33.68C20.9499 31.1185 22.9992 28.4484 24.9097 25.68L25.2597 25.15C27.1697 22.3 29.7897 18.4 29.7897 13.73C29.7739 10.6135 28.5247 7.63006 26.3154 5.43197C24.106 3.23388 21.1163 1.99996 17.9997 2ZM17.9997 19C16.7023 19 15.434 18.6153 14.3552 17.8944C13.2764 17.1736 12.4356 16.1491 11.9391 14.9504C11.4426 13.7517 11.3127 12.4327 11.5658 11.1602C11.8189 9.88769 12.4437 8.71881 13.3611 7.80138C14.2785 6.88395 15.4474 6.25917 16.7199 6.00605C17.9924 5.75293 19.3114 5.88284 20.5101 6.37935C21.7088 6.87586 22.7333 7.71667 23.4542 8.79546C24.175 9.87425 24.5597 11.1426 24.5597 12.44C24.5597 14.1798 23.8686 15.8484 22.6383 17.0786C21.4081 18.3089 19.7395 19 17.9997 19Z" fill="black"/>
<path d="M17.9995 16.17C20.0596 16.17 21.7295 14.5 21.7295 12.44C21.7295 10.3799 20.0596 8.70996 17.9995 8.70996C15.9395 8.70996 14.2695 10.3799 14.2695 12.44C14.2695 14.5 15.9395 16.17 17.9995 16.17Z" fill="black"/>
</svg>
