<svg width="40" height="40" viewBox="0 0 40 40" fill="none" xmlns="http://www.w3.org/2000/svg">
<path d="M34.5167 13.3L26.7167 5.5C26.4 5.18333 25.9667 5 25.5333 5H14.4667C14.0333 5 13.6 5.18333 13.3 5.48333L5.48333 13.3C5.18333 13.6 5 14.0333 5 14.4667V25.5167C5 25.9667 5.18333 26.3833 5.48333 26.7L13.2833 34.5C13.6 34.8167 14.0333 35 14.4667 35H25.5167C25.9667 35 26.3833 34.8167 26.7 34.5167L34.5 26.7167C34.6552 26.5615 34.7779 26.3769 34.8609 26.1737C34.9439 25.9705 34.9855 25.7528 34.9833 25.5333V14.4667C35 14.0333 34.8167 13.6 34.5167 13.3ZM31.6667 24.8333L24.8333 31.6667H15.1667L8.33333 24.8333V15.1667L15.1667 8.33333H24.8333L31.6667 15.1667V24.8333Z" fill="black"/>
<path d="M20.0002 28.3333C20.9206 28.3333 21.6668 27.5871 21.6668 26.6667C21.6668 25.7462 20.9206 25 20.0002 25C19.0797 25 18.3335 25.7462 18.3335 26.6667C18.3335 27.5871 19.0797 28.3333 20.0002 28.3333Z" fill="black"/>
<path d="M20.0002 11.6666C19.0835 11.6666 18.3335 12.4166 18.3335 13.3333V21.6666C18.3335 22.5833 19.0835 23.3333 20.0002 23.3333C20.9168 23.3333 21.6668 22.5833 21.6668 21.6666V13.3333C21.6668 12.4166 20.9168 11.6666 20.0002 11.6666Z" fill="black"/>
</svg>
