<svg width="29" height="29" viewBox="0 0 29 29" fill="none" xmlns="http://www.w3.org/2000/svg">
<g clip-path="url(#clip0_400_1437)">
<path d="M14.3934 0.983521C8.36206 0.983521 3.45593 5.91507 3.45593 11.9758C3.45593 18.0364 8.3625 22.968 14.3934 22.968C20.4248 22.968 25.3309 18.0364 25.3309 11.9758C25.3309 5.91507 20.4244 0.983521 14.3934 0.983521ZM14.3934 20.77C9.56825 20.77 5.643 16.8251 5.643 11.9758C5.643 7.1273 9.56781 3.18241 14.3934 3.18241C19.2182 3.18241 23.143 7.1273 23.143 11.9758C23.1426 16.8251 19.2177 20.77 14.3934 20.77Z" fill="#F8F8F8"/>
<path d="M11.5121 8.60637C11.9172 8.17468 12.4015 7.82564 12.9383 7.57838C13.4862 7.3254 14.0827 7.19632 14.6857 7.20024C15.4509 7.20024 16.1531 7.38359 16.7931 7.7503C17.4241 8.1089 17.9617 8.61243 18.362 9.21974L19.9212 8.04797C19.3289 7.23516 18.5592 6.56947 17.6712 6.1019C16.7691 5.62088 15.7733 5.38037 14.6852 5.38037C13.7888 5.38037 12.9462 5.55449 12.1578 5.9036C11.3872 6.23853 10.6873 6.71833 10.0959 7.3172C9.50527 7.91965 9.03376 8.62926 8.70637 9.40836C8.36556 10.206 8.19537 11.0629 8.19537 11.9761C8.19537 12.8885 8.36556 13.7446 8.70637 14.5444C9.03341 15.3231 9.50497 16.0322 10.0959 16.6338C10.6874 17.233 11.3872 17.7134 12.1578 18.0491C12.9466 18.3965 13.7892 18.571 14.6852 18.571C15.7733 18.571 16.7686 18.3305 17.6712 17.8491C18.5597 17.3822 19.3295 16.7164 19.9212 15.903L18.362 14.733C17.961 15.3394 17.4235 15.8424 16.7931 16.2011C16.1531 16.5674 15.4509 16.7507 14.6857 16.7507C14.0827 16.7549 13.4862 16.6258 12.9383 16.3726C12.4014 16.1255 11.9171 15.7764 11.5121 15.3446C11.1061 14.9137 10.7832 14.4076 10.5439 13.8316C10.3046 13.2556 10.1851 12.6361 10.1851 11.9761C10.1851 11.3149 10.3046 10.6962 10.5439 10.1198C10.7832 9.54335 11.1061 9.03902 11.5121 8.60637" fill="#F8F8F8"/>
</g>
<defs>
<clipPath id="clip0_400_1437">
<rect width="28" height="28.1401" fill="white" transform="translate(0.393433 0.104126)"/>
</clipPath>
</defs>
</svg>
