<svg width="30" height="31" viewBox="0 0 30 31" fill="none" xmlns="http://www.w3.org/2000/svg">
<path d="M27.2569 13.0519H26.25V13H15V18H22.0644C21.0338 20.9106 18.2644 23 15 23C10.8581 23 7.5 19.6419 7.5 15.5C7.5 11.3581 10.8581 8 15 8C16.9119 8 18.6513 8.72125 19.9756 9.89937L23.5112 6.36375C21.2787 4.28312 18.2925 3 15 3C8.09688 3 2.5 8.59688 2.5 15.5C2.5 22.4031 8.09688 28 15 28C21.9031 28 27.5 22.4031 27.5 15.5C27.5 14.6619 27.4137 13.8438 27.2569 13.0519Z" fill="#FFC107"/>
<path d="M3.94125 9.68188L8.04813 12.6938C9.15938 9.9425 11.8506 8 15 8C16.9119 8 18.6513 8.72125 19.9756 9.89937L23.5113 6.36375C21.2788 4.28312 18.2925 3 15 3C10.1988 3 6.035 5.71062 3.94125 9.68188Z" fill="#FF3D00"/>
<path d="M15 28C18.2288 28 21.1625 26.7644 23.3806 24.755L19.5119 21.4813C18.2147 22.4677 16.6297 23.0013 15 23C11.7488 23 8.98814 20.9269 7.94814 18.0338L3.87189 21.1744C5.94064 25.2225 10.1419 28 15 28Z" fill="#4CAF50"/>
<path d="M27.2569 13.0519H26.25V13H15V18H22.0644C21.5714 19.3853 20.6833 20.5957 19.51 21.4819L19.5119 21.4806L23.3806 24.7544C23.1069 25.0031 27.5 21.75 27.5 15.5C27.5 14.6619 27.4137 13.8438 27.2569 13.0519Z" fill="#1976D2"/>
</svg>
