<svg width="15" height="15" viewBox="0 0 15 15" fill="none" xmlns="http://www.w3.org/2000/svg">
<path d="M15 2.5H12.8036C12.5357 1.0625 11.4643 0 10.1786 0C8.89286 0 7.82143 1.0625 7.55357 2.5H0V3.75H7.55357C7.82143 5.1875 8.89286 6.25 10.1786 6.25C11.4643 6.25 12.5357 5.1875 12.8036 3.75H15V2.5ZM10.1786 5C9.26786 5 8.57143 4.1875 8.57143 3.125C8.57143 2.0625 9.26786 1.25 10.1786 1.25C11.0893 1.25 11.7857 2.0625 11.7857 3.125C11.7857 4.1875 11.0893 5 10.1786 5ZM0 12.5H2.19643C2.46429 13.9375 3.53571 15 4.82143 15C6.10714 15 7.17857 13.9375 7.44643 12.5H15V11.25H7.44643C7.17857 9.8125 6.10714 8.75 4.82143 8.75C3.53571 8.75 2.46429 9.8125 2.19643 11.25H0V12.5ZM4.82143 10C5.73214 10 6.42857 10.8125 6.42857 11.875C6.42857 12.9375 5.73214 13.75 4.82143 13.75C3.91071 13.75 3.21429 12.9375 3.21429 11.875C3.21429 10.8125 3.91071 10 4.82143 10Z" fill="#000"/>
</svg>
