<svg width="18" height="20" viewBox="0 0 18 20" fill="none" xmlns="http://www.w3.org/2000/svg">
<path d="M2.57143 1.33333C2.57143 0.979711 2.70689 0.640573 2.94801 0.390524C3.18912 0.140476 3.51615 0 3.85714 0H14.1429C14.4838 0 14.8109 0.140476 15.052 0.390524C15.2931 0.640573 15.4286 0.979711 15.4286 1.33333V18.6667H17.3571C17.5276 18.6667 17.6912 18.7369 17.8117 18.8619C17.9323 18.987 18 19.1565 18 19.3333C18 19.5101 17.9323 19.6797 17.8117 19.8047C17.6912 19.9298 17.5276 20 17.3571 20H0.642857C0.472361 20 0.308848 19.9298 0.188288 19.8047C0.0677294 19.6797 0 19.5101 0 19.3333C0 19.1565 0.0677294 18.987 0.188288 18.8619C0.308848 18.7369 0.472361 18.6667 0.642857 18.6667H2.57143V1.33333ZM3.85714 18.6667H14.1429V1.33333H3.85714V18.6667Z" fill="black"/>
<path d="M10.2861 10.6667C10.2861 11.0203 10.4216 11.3595 10.6627 11.6095C10.9038 11.8596 11.2309 12 11.5718 12C11.9128 12 12.2399 11.8596 12.481 11.6095C12.7221 11.3595 12.8576 11.0203 12.8576 10.6667C12.8576 10.3131 12.7221 9.97395 12.481 9.7239C12.2399 9.47385 11.9128 9.33337 11.5718 9.33337C11.2309 9.33337 10.9038 9.47385 10.6627 9.7239C10.4216 9.97395 10.2861 10.3131 10.2861 10.6667Z" fill="black"/>
</svg>
