<svg width="40" height="10" viewBox="0 0 40 10" fill="none" xmlns="http://www.w3.org/2000/svg">
<path fill-rule="evenodd" clip-rule="evenodd" d="M4.61538 10C7.16446 10 9.23077 7.7615 9.23077 5C9.23077 2.2385 7.16446 0 4.61538 0C2.06631 0 0 2.2385 0 5C0 7.7615 2.06631 10 4.61538 10ZM20 10C22.5491 10 24.6154 7.7615 24.6154 5C24.6154 2.2385 22.5491 0 20 0C17.4509 0 15.3846 2.2385 15.3846 5C15.3846 7.7615 17.4509 10 20 10ZM40 5C40 7.7615 37.9337 10 35.3846 10C32.8355 10 30.7692 7.7615 30.7692 5C30.7692 2.2385 32.8355 0 35.3846 0C37.9337 0 40 2.2385 40 5Z" fill="#000"/>
</svg>
