<svg width="21" height="20" viewBox="0 0 21 20" fill="none" xmlns="http://www.w3.org/2000/svg">
<path d="M20.8237 18.99L17.4744 15.6414C18.3695 14.4894 18.7918 13.0395 18.6554 11.587C18.519 10.1345 17.8341 8.78862 16.7401 7.8234C15.6462 6.85819 14.2255 6.34622 12.7673 6.39175C11.3091 6.43729 9.9231 7.0369 8.89151 8.0685C7.85992 9.10009 7.26031 10.4861 7.21477 11.9443C7.16924 13.4024 7.6812 14.8232 8.64642 15.9171C9.61164 17.0111 10.9575 17.696 12.41 17.8324C13.8625 17.9688 15.3124 17.5465 16.4644 16.6514L19.8137 20L20.8237 18.99ZM12.9666 16.4286C12.119 16.4286 11.2904 16.1772 10.5856 15.7063C9.88079 15.2354 9.33148 14.566 9.0071 13.7829C8.68273 12.9998 8.59786 12.1381 8.76322 11.3068C8.92859 10.4754 9.33676 9.71177 9.93613 9.1124C10.5355 8.51303 11.2991 8.10486 12.1305 7.93949C12.9618 7.77413 13.8235 7.859 14.6067 8.18337C15.3898 8.50775 16.0591 9.05706 16.53 9.76184C17.0009 10.4666 17.2523 11.2952 17.2523 12.1429C17.251 13.2791 16.799 14.3684 15.9956 15.1719C15.1921 15.9753 14.1028 16.4272 12.9666 16.4286ZM0.82373 7.14286H6.53802V8.57143H0.82373V7.14286ZM0.82373 0H12.2523V1.42857H0.82373V0ZM0.82373 3.57143H12.2523V5H0.82373V3.57143Z" fill="#000"/>
</svg>
