<svg width="30" height="30" viewBox="0 0 30 30" fill="none" xmlns="http://www.w3.org/2000/svg">
<path d="M30 7.94126C30 10.0474 29.1633 12.0673 27.6741 13.5566C26.1848 15.0459 24.165 15.8825 22.0588 15.8825C19.9527 15.8825 17.9328 15.0459 16.4436 13.5566C14.9543 12.0673 14.1176 10.0474 14.1176 7.94126C14.1176 5.83511 14.9543 3.81522 16.4436 2.32594C17.9328 0.836666 19.9527 0 22.0588 0C24.165 0 26.1848 0.836666 27.6741 2.32594C29.1633 3.81522 30 5.83511 30 7.94126ZM22.9412 4.41181C22.9412 4.17779 22.8482 3.95336 22.6827 3.78789C22.5173 3.62241 22.2928 3.52945 22.0588 3.52945C21.8248 3.52945 21.6004 3.62241 21.4349 3.78789C21.2694 3.95336 21.1765 4.17779 21.1765 4.41181V7.0589H18.5294C18.2954 7.0589 18.071 7.15186 17.9055 7.31734C17.74 7.48281 17.6471 7.70724 17.6471 7.94126C17.6471 8.17528 17.74 8.39971 17.9055 8.56518C18.071 8.73066 18.2954 8.82362 18.5294 8.82362H21.1765V11.4707C21.1765 11.7047 21.2694 11.9292 21.4349 12.0946C21.6004 12.2601 21.8248 12.3531 22.0588 12.3531C22.2928 12.3531 22.5173 12.2601 22.6827 12.0946C22.8482 11.9292 22.9412 11.7047 22.9412 11.4707V8.82362H25.5882C25.8223 8.82362 26.0467 8.73066 26.2122 8.56518C26.3776 8.39971 26.4706 8.17528 26.4706 7.94126C26.4706 7.70724 26.3776 7.48281 26.2122 7.31734C26.0467 7.15186 25.8223 7.0589 25.5882 7.0589H22.9412V4.41181ZM26.4706 19.899V16.5884C27.0992 16.2672 27.6909 15.8784 28.2353 15.429V19.899C28.2353 22.4014 26.1812 24.4273 23.6471 24.4273H15.5471L8.46882 29.6527C8.09315 29.9296 7.62378 30.048 7.16172 29.9823C6.69966 29.9166 6.28186 29.6721 5.99824 29.3015C5.77087 29.002 5.64756 28.6364 5.64706 28.2603V24.4273H4.58824C2.05412 24.4273 0 22.3996 0 19.899V8.05773C0 5.55712 2.05412 3.52945 4.58824 3.52945H13.4118C13.1232 4.09347 12.8909 4.68457 12.7182 5.29417H4.58824C3.00706 5.29417 1.76471 6.55242 1.76471 8.05773V19.899C1.76471 21.4043 3.00706 22.6626 4.58824 22.6626H7.41176V28.2356H7.41706L7.42059 28.2338L14.9665 22.6626H23.6471C25.2282 22.6626 26.4706 21.4043 26.4706 19.899Z" fill="#000"/>
</svg>
