<svg width="17" height="18" viewBox="0 0 17 18" fill="none" xmlns="http://www.w3.org/2000/svg">
<path d="M11 4.97437H12.6667H11ZM11 8.72437H12.6667H11ZM8.5 12.4744H4.33333H8.5ZM16 8.72437V3.09937C16 2.60208 15.8244 2.12517 15.5118 1.77354C15.1993 1.42191 14.7754 1.22437 14.3333 1.22437H2.66667C2.22464 1.22437 1.80072 1.42191 1.48816 1.77354C1.17559 2.12517 1 2.60208 1 3.09937V14.3494C1 14.8466 1.17559 15.3236 1.48816 15.6752C1.80072 16.0268 2.22464 16.2244 2.66667 16.2244H8.5L16 8.72437ZM4.33333 4.97437V8.72437H7.66667V4.97437H4.33333Z" stroke="#000" stroke-width="2" stroke-linecap="round" stroke-linejoin="round"/>
<path d="M13.0714 12.9L14.3704 14.199M13.0714 12.9C13.2455 12.7258 13.3836 12.5191 13.4779 12.2916C13.5721 12.0641 13.6206 11.8202 13.6206 11.574C13.6206 11.3277 13.5721 11.0839 13.4779 10.8563C13.3836 10.6288 13.2455 10.4221 13.0714 10.248C12.8972 10.0738 12.6905 9.93572 12.463 9.84148C12.2355 9.74724 11.9916 9.69873 11.7454 9.69873C11.4991 9.69873 11.2553 9.74724 11.0277 9.84148C10.8002 9.93572 10.5935 10.0738 10.4194 10.248C10.0677 10.5997 9.87012 11.0766 9.87012 11.574C9.87012 12.0713 10.0677 12.5483 10.4194 12.9C10.771 13.2516 11.248 13.4492 11.7454 13.4492C12.2427 13.4492 12.7197 13.2516 13.0714 12.9Z" stroke="#000" stroke-width="2" stroke-linecap="round" stroke-linejoin="round"/>
</svg>
