<svg width="25" height="26" viewBox="0 0 25 26" fill="none" xmlns="http://www.w3.org/2000/svg">
<path d="M18.125 0.993774C15.95 0.993774 13.8625 2.09594 12.5 3.83763C11.1375 2.09594 9.05 0.993774 6.875 0.993774C3.025 0.993774 0 4.28666 0 8.47761C0 13.621 4.25 17.812 10.6875 24.1801L12.5 25.9626L14.3125 24.1664C20.75 17.812 25 13.621 25 8.47761C25 4.28666 21.975 0.993774 18.125 0.993774ZM12.625 22.1526L12.5 22.2887L12.375 22.1526C6.425 16.288 2.5 12.41 2.5 8.47761C2.5 5.75621 4.375 3.71517 6.875 3.71517C8.8 3.71517 10.675 5.06226 11.3375 6.92641H13.675C14.325 5.06226 16.2 3.71517 18.125 3.71517C20.625 3.71517 22.5 5.75621 22.5 8.47761C22.5 12.41 18.575 16.288 12.625 22.1526Z" fill="#000"/>
</svg>
