<svg width="26" height="26" viewBox="0 0 26 26" fill="none" xmlns="http://www.w3.org/2000/svg">
<circle cx="13" cy="13" r="13" fill="#010101" fill-opacity="0.7"/>
<path d="M14.6 6.72727C14.6 6.29328 14.4314 5.87707 14.1314 5.57019C13.8313 5.26331 13.4243 5.09091 13 5.09091C12.5757 5.09091 12.1687 5.26331 11.8686 5.57019C11.5686 5.87707 11.4 6.29328 11.4 6.72727H10.3333C10.3333 6.00396 10.6143 5.31026 11.1144 4.7988C11.6145 4.28734 12.2928 4 13 4C13.7072 4 14.3855 4.28734 14.8856 4.7988C15.3857 5.31026 15.6667 6.00396 15.6667 6.72727H20.4667C20.6081 6.72727 20.7438 6.78474 20.8438 6.88703C20.9438 6.98933 21 7.12806 21 7.27273C21 7.41739 20.9438 7.55613 20.8438 7.65842C20.7438 7.76071 20.6081 7.81818 20.4667 7.81818H19.8757L18.4933 20.0691C18.4331 20.6008 18.184 21.0913 17.7932 21.4474C17.4024 21.8034 16.8972 22.0001 16.3739 22H9.62613C9.10277 22.0001 8.59764 21.8034 8.20685 21.4474C7.81605 21.0913 7.56685 20.6008 7.50667 20.0691L6.1232 7.81818H5.53333C5.40851 7.81822 5.28762 7.77349 5.19172 7.69176C5.09583 7.61003 5.031 7.49649 5.00853 7.37091L5 7.27273C5 7.12806 5.05619 6.98933 5.15621 6.88703C5.25623 6.78474 5.39188 6.72727 5.53333 6.72727H14.6ZM18.8005 7.81818H7.1984L8.56587 19.9436C8.59597 20.2096 8.72064 20.4549 8.91616 20.6329C9.11167 20.811 9.36436 20.9093 9.62613 20.9091H16.3739C16.6355 20.909 16.8879 20.8106 17.0832 20.6326C17.2785 20.4546 17.403 20.2094 17.4331 19.9436L18.8005 7.81818ZM11.4 10.5455C11.6613 10.5455 11.88 10.7145 11.9248 10.9371L11.9333 11.0233V17.7051C11.9333 17.968 11.6944 18.1818 11.4 18.1818C11.1387 18.1818 10.92 18.0127 10.8752 17.7902L10.8667 17.704V11.0244C10.8667 10.7604 11.1056 10.5465 11.4 10.5465V10.5455ZM14.6 10.5455C14.8613 10.5455 15.08 10.7145 15.1248 10.9371L15.1333 11.0233V17.7051C15.1333 17.968 14.8944 18.1818 14.6 18.1818C14.3387 18.1818 14.12 18.0127 14.0752 17.7902L14.0667 17.704V11.0244C14.0667 10.7604 14.3056 10.5465 14.6 10.5465V10.5455Z" fill="#000"/>
</svg>
