<svg width="25" height="18" viewBox="0 0 25 18" fill="none" xmlns="http://www.w3.org/2000/svg">
<path d="M1.25 0H23.75C24.4375 0 25 0.623077 25 1.38462C25 2.14615 24.4375 2.76923 23.75 2.76923V18H21.25V15.2308H16.25V18H13.75V2.76923H3.75V18H1.25V2.76923C0.5625 2.76923 0 2.14615 0 1.38462C0 0.623077 0.5625 0 1.25 0ZM17.5 6.23077V6.92308H20V6.23077C20 5.84308 19.725 5.53846 19.375 5.53846H18.125C17.775 5.53846 17.5 5.84308 17.5 6.23077ZM17.5 11.7692V12.4615H20V11.7692C20 11.3815 19.725 11.0769 19.375 11.0769H18.125C17.775 11.0769 17.5 11.3815 17.5 11.7692Z" fill="#000"/>
</svg>
