<svg width="20" height="21" viewBox="0 0 20 21" fill="none" xmlns="http://www.w3.org/2000/svg">
<path d="M15.1053 19.3174C14.8598 19.3172 14.6199 19.2437 14.4164 19.1063L10.272 16.3285C10.2516 16.3144 10.2273 16.3069 10.2025 16.3069C10.1777 16.3069 10.1535 16.3144 10.1331 16.3285L5.98865 19.1063C5.78053 19.2452 5.53507 19.3176 5.28486 19.3138C5.03464 19.3099 4.79151 19.2301 4.58776 19.0848C4.38401 18.9395 4.22926 18.7357 4.14409 18.5004C4.05891 18.2651 4.04732 18.0094 4.11087 17.7674L5.47198 12.9674C5.47842 12.9433 5.47764 12.9178 5.46974 12.8941C5.46184 12.8704 5.44717 12.8495 5.42754 12.8341L1.50532 9.75073C1.29884 9.59691 1.14568 9.38233 1.06731 9.13707C0.988938 8.89181 0.989293 8.62817 1.06832 8.38312C1.14735 8.13808 1.30109 7.92391 1.50798 7.77064C1.71487 7.61738 1.96454 7.53271 2.22198 7.52851L7.22198 7.33962C7.24657 7.33792 7.27013 7.32915 7.28985 7.31437C7.30956 7.29958 7.32458 7.27941 7.33309 7.25628L9.05531 2.57295C9.14212 2.33553 9.2998 2.13052 9.50698 1.98567C9.71416 1.84083 9.96085 1.76315 10.2136 1.76315C10.4664 1.76315 10.7131 1.84083 10.9203 1.98567C11.1275 2.13052 11.2852 2.33553 11.372 2.57295L13.0942 7.25628C13.1027 7.27941 13.1177 7.29958 13.1374 7.31437C13.1572 7.32915 13.1807 7.33792 13.2053 7.33962L18.2053 7.52851C18.4628 7.53271 18.7124 7.61738 18.9193 7.77064C19.1262 7.92391 19.2799 8.13808 19.359 8.38312C19.438 8.62817 19.4384 8.89181 19.36 9.13707C19.2816 9.38233 19.1285 9.59691 18.922 9.75073L14.9998 12.8341C14.9795 12.849 14.9644 12.8698 14.9565 12.8937C14.9485 12.9176 14.9481 12.9433 14.9553 12.9674L16.3164 17.7674C16.3642 17.9515 16.3689 18.1441 16.3303 18.3304C16.2916 18.5166 16.2106 18.6915 16.0935 18.8413C15.9764 18.9912 15.8263 19.1121 15.6549 19.1947C15.4836 19.2772 15.2955 19.3192 15.1053 19.3174V19.3174ZM10.2053 15.1952C10.4513 15.2027 10.6894 15.284 10.8886 15.4285L15.0331 18.2063C15.0541 18.2222 15.0797 18.231 15.1061 18.2312C15.1325 18.2314 15.1582 18.2231 15.1795 18.2074C15.2007 18.1918 15.2163 18.1697 15.224 18.1445C15.2317 18.1192 15.231 18.0922 15.222 18.0674L13.8609 13.2674C13.7939 13.0319 13.7988 12.7818 13.8751 12.5492C13.9513 12.3165 14.0953 12.112 14.2886 11.9618L18.2109 8.87851C18.2323 8.86348 18.2483 8.84198 18.2566 8.81718C18.2648 8.79238 18.2649 8.76558 18.2569 8.74071C18.2488 8.71585 18.2329 8.69423 18.2117 8.67903C18.1904 8.66383 18.1648 8.65586 18.1386 8.65628L13.1386 8.4674C12.8938 8.45785 12.6574 8.37561 12.4595 8.23115C12.2616 8.08668 12.1112 7.88656 12.0275 7.65628L10.3053 2.97295C10.2976 2.94808 10.282 2.92635 10.2611 2.91092C10.2401 2.89548 10.2147 2.88716 10.1886 2.88716C10.1626 2.88716 10.1372 2.89548 10.1162 2.91092C10.0953 2.92635 10.0797 2.94808 10.072 2.97295L8.36643 7.65073C8.28273 7.881 8.13235 8.08113 7.93446 8.22559C7.73657 8.37005 7.50014 8.4523 7.25532 8.46184L2.25532 8.65073C2.22917 8.65031 2.20358 8.65828 2.18231 8.67348C2.16103 8.68867 2.14519 8.71029 2.13711 8.73516C2.12902 8.76002 2.12913 8.78683 2.13741 8.81163C2.14568 8.83643 2.1617 8.85792 2.18309 8.87295L6.11087 11.9618C6.30362 12.1125 6.4472 12.3171 6.52338 12.5495C6.59955 12.782 6.60487 13.0319 6.53865 13.2674L5.18309 18.0674C5.175 18.0914 5.17496 18.1174 5.18298 18.1415C5.191 18.1656 5.20664 18.1864 5.22754 18.2007C5.24766 18.2179 5.27328 18.2274 5.29976 18.2274C5.32624 18.2274 5.35186 18.2179 5.37198 18.2007L9.51643 15.4229C9.71897 15.2886 9.9567 15.2171 10.1998 15.2174L10.2053 15.1952Z" fill="#000"/>
</svg>
