<svg width="24" height="27" viewBox="0 0 24 27" fill="none" xmlns="http://www.w3.org/2000/svg">
<path d="M5.24679 5.4186L4.92859 9.48256M15.2613 19.0593L12.0003 17.9936L8.73874 19.0593L8.04578 15.7471L5.47719 13.5L8.04578 11.2529L8.73874 7.9407L11.9997 9.00698L15.2613 7.94128L15.9536 11.2535L18.5228 13.5006L15.9542 15.7471L15.2613 19.0593ZM11.9997 17.9942V1V17.9942ZM8.26439 3.70407L12.0003 5.46453L8.26439 3.70407ZM15.7356 3.70407L11.9997 5.46453L15.7356 3.70407ZM11.9997 17.9942V26V17.9942ZM15.7356 23.2965L11.9997 21.536L15.7356 23.2965ZM8.26439 23.2965L12.0003 21.536L8.26439 23.2965ZM8.04578 15.7471L23 7.25L8.04578 15.7471ZM18.7526 5.4186L19.0708 9.48256L18.7526 5.4186ZM22.4885 11.786L19.0714 9.48256L22.4885 11.786ZM8.04578 15.7471L1 19.75L8.04578 15.7471ZM5.24679 21.582L4.92859 17.518L5.24679 21.582ZM1.51207 15.2151L4.92859 17.518L1.51207 15.2151ZM15.9536 15.7471L23 19.7506L15.9536 15.7471ZM22.4885 15.2151L19.072 17.5186L22.4885 15.2151ZM18.7526 21.582L19.0708 17.518L18.7526 21.582ZM15.9536 15.7471L1.00059 7.25L15.9536 15.7471ZM1.51207 11.786L4.92859 9.48256L1.51207 11.786Z" stroke="black" stroke-linecap="round" stroke-linejoin="round"/>
</svg>
