<svg width="20" height="18" viewBox="0 0 22 22" fill="none" xmlns="http://www.w3.org/2000/svg">
<path d="M19.4231 1.23503C16.5202 -1.00899 12.9356 0.0382159 11.0003 2.60637C9.06505 0.0382159 5.48042 -1.02146 2.57754 1.23503C1.03813 2.43184 0.0705043 4.45145 0.00452968 6.58327C-0.149411 11.4204 3.63314 15.2975 9.40592 21.2442L9.51587 21.3564C10.3516 22.2166 11.6381 22.2166 12.4737 21.3439L12.5947 21.2193C18.3675 15.2851 22.139 11.4079 21.9961 6.5708C21.9301 4.45145 20.9625 2.43184 19.4231 1.23503ZM11.1103 19.3866L11.0003 19.5113L10.8903 19.3866C5.65636 14.0135 2.20368 10.4604 2.20368 6.85754C2.20368 4.36419 3.85305 2.49417 6.0522 2.49417C7.74555 2.49417 9.39492 3.72838 9.97769 5.43633H12.0339C12.6057 3.72838 14.2551 2.49417 15.9484 2.49417C18.1476 2.49417 19.7969 4.36419 19.7969 6.85754C19.7969 10.4604 16.3442 14.0135 11.1103 19.3866Z" fill="#000"/>
</svg>
