<svg width="20" height="20" viewBox="0 0 20 20" fill="none" xmlns="http://www.w3.org/2000/svg">
<path d="M15.8343 17.5002H8.33431C7.89228 17.5002 7.46836 17.3246 7.1558 17.012C6.84324 16.6995 6.66764 16.2756 6.66764 15.8335V12.5002H8.33431V15.8335H15.8343V4.1669H8.33431V7.50023H6.66764V4.1669C6.66764 3.72488 6.84324 3.30096 7.1558 2.9884C7.46836 2.67584 7.89228 2.50024 8.33431 2.50024H15.8343C16.2763 2.50024 16.7003 2.67584 17.0128 2.9884C17.3254 3.30096 17.501 3.72488 17.501 4.1669V15.8335C17.501 16.2756 17.3254 16.6995 17.0128 17.012C16.7003 17.3246 16.2763 17.5002 15.8343 17.5002ZM10.001 13.3335V10.8335H2.50098V9.16689H10.001V6.6669L14.1676 10.0002L10.001 13.3335Z" fill="black"/>
</svg>
