<svg width="20" height="20" viewBox="0 0 20 20" fill="none" xmlns="http://www.w3.org/2000/svg">
<path d="M10 0C4.47656 0 0 4.15625 0 9.28572C0 11.5 0.835937 13.5268 2.22656 15.1205C1.73828 17.3705 0.105469 19.375 0.0859375 19.3973C0 19.5 -0.0234375 19.6518 0.0273438 19.7857C0.078125 19.9196 0.1875 20 0.3125 20C2.90234 20 4.84375 18.5804 5.80469 17.7054C7.08203 18.2545 8.5 18.5714 10 18.5714C15.5234 18.5714 20 14.4152 20 9.28572C20 4.15625 15.5234 0 10 0ZM5 10.7143C4.30859 10.7143 3.75 10.0759 3.75 9.28572C3.75 8.49554 4.30859 7.85714 5 7.85714C5.69141 7.85714 6.25 8.49554 6.25 9.28572C6.25 10.0759 5.69141 10.7143 5 10.7143ZM10 10.7143C9.30859 10.7143 8.75 10.0759 8.75 9.28572C8.75 8.49554 9.30859 7.85714 10 7.85714C10.6914 7.85714 11.25 8.49554 11.25 9.28572C11.25 10.0759 10.6914 10.7143 10 10.7143ZM15 10.7143C14.3086 10.7143 13.75 10.0759 13.75 9.28572C13.75 8.49554 14.3086 7.85714 15 7.85714C15.6914 7.85714 16.25 8.49554 16.25 9.28572C16.25 10.0759 15.6914 10.7143 15 10.7143Z" fill="black"/>
</svg>
