<svg width="20" height="21" viewBox="0 0 20 21" fill="none" xmlns="http://www.w3.org/2000/svg">
<g clip-path="url(#clip0_396_1356)">
<path d="M16.9757 15.3568L15.3132 12.6318V8.76931C15.3724 7.74231 15.1396 6.71955 14.6419 5.81927C14.1442 4.91898 13.4019 4.17794 12.5007 3.68181C12.513 3.52371 12.513 3.3649 12.5007 3.20681C12.491 2.8883 12.4187 2.57484 12.2877 2.28432C12.1568 1.9938 11.9699 1.73194 11.7378 1.51369C11.5056 1.29544 11.2327 1.1251 10.9346 1.01238C10.6366 0.899671 10.3192 0.846805 10.0007 0.856808C9.68224 0.846805 9.3649 0.899671 9.06685 1.01238C8.7688 1.1251 8.49588 1.29544 8.2637 1.51369C8.03153 1.73194 7.84464 1.9938 7.71372 2.28432C7.58281 2.57484 7.51043 2.8883 7.50073 3.20681C7.48233 3.36461 7.48233 3.52401 7.50073 3.68181C6.59959 4.17794 5.85725 4.91898 5.35955 5.81927C4.86185 6.71955 4.62911 7.74231 4.68823 8.76931V12.6318L3.02573 15.3568C2.88193 15.593 2.80339 15.8632 2.79813 16.1397C2.79288 16.4162 2.86111 16.6891 2.99584 16.9306C3.13057 17.1721 3.32699 17.3735 3.56502 17.5143C3.80306 17.655 4.0742 17.7301 4.35073 17.7318H6.56323C6.62106 18.5961 7.01139 19.4043 7.65231 19.987C8.29322 20.5696 9.13491 20.8814 10.0007 20.8568C10.8666 20.8814 11.7082 20.5696 12.3492 19.987C12.9901 19.4043 13.3804 18.5961 13.4382 17.7318H15.6507C15.9273 17.7301 16.1984 17.655 16.4364 17.5143C16.6745 17.3735 16.8709 17.1721 17.0056 16.9306C17.1404 16.6891 17.2086 16.4162 17.2033 16.1397C17.1981 15.8632 17.1195 15.593 16.9757 15.3568V15.3568ZM9.06323 3.20681C9.08546 2.97901 9.19605 2.76899 9.37131 2.62178C9.54656 2.47456 9.77252 2.40188 10.0007 2.41931C10.2289 2.40188 10.4549 2.47456 10.6302 2.62178C10.8054 2.76899 10.916 2.97901 10.9382 3.20681C10.626 3.18726 10.3129 3.18726 10.0007 3.20681C9.68855 3.18693 9.37542 3.18693 9.06323 3.20681V3.20681ZM10.0007 19.2943C9.54906 19.317 9.10539 19.1689 8.75797 18.8794C8.41054 18.5899 8.18483 18.1802 8.12573 17.7318H11.8757C11.8166 18.1802 11.5909 18.5899 11.2435 18.8794C10.8961 19.1689 10.4524 19.317 10.0007 19.2943V19.2943ZM4.35073 16.1693L6.02573 13.4568L6.25073 13.0693V8.76931C6.24773 7.83318 6.50759 6.91501 7.00073 6.11931C7.34101 5.65296 7.79602 5.28246 8.32165 5.04374C8.84727 4.80502 9.42566 4.70618 10.0007 4.75681C10.5758 4.70618 11.1542 4.80502 11.6798 5.04374C12.2054 5.28246 12.6605 5.65296 13.0007 6.11931C13.4939 6.91501 13.7537 7.83318 13.7507 8.76931V13.0693L13.9757 13.4568L15.6507 16.1693H4.35073Z" fill="black"/>
</g>
<defs>
<clipPath id="clip0_396_1356">
<rect width="20" height="20" fill="white" transform="translate(0.000976562 0.856845)"/>
</clipPath>
</defs>
</svg>
