<svg width="22" height="15" viewBox="0 0 22 15" fill="none" xmlns="http://www.w3.org/2000/svg">
<path d="M10.9691 10.7052C9.75395 10.7052 8.76909 11.6667 8.76909 12.8526C8.76909 14.0385 9.75429 15 10.9691 15C12.184 15 13.1692 14.0385 13.1692 12.8526C13.1692 11.6667 12.2135 10.7052 10.9691 10.7052ZM11.0001 5.33749C8.58518 5.33749 6.25967 6.19632 4.45151 7.75396C3.99776 8.17566 3.95307 8.85333 4.35526 9.29952C4.76089 9.74235 5.45528 9.78596 5.90904 9.39345C7.315 8.18237 9.12316 7.51476 11.0001 7.51476C12.877 7.51476 14.6886 8.1817 16.0911 9.39345C16.3008 9.57461 16.562 9.66184 16.8199 9.66184C16.9759 9.66196 17.1301 9.62968 17.2724 9.56716C17.4146 9.50463 17.5416 9.41328 17.6449 9.29918C18.0471 8.85333 18.0058 8.17566 17.5486 7.78315C15.7405 6.22652 13.4167 5.33749 11.0001 5.33749ZM21.6634 4.18344C18.7793 1.48551 14.9945 0 11.0001 0C7.00562 0 3.22052 1.48551 0.338267 4.18344C-0.100022 4.5944 -0.114116 5.27375 0.306023 5.70149C0.726092 6.13023 1.4222 6.14164 1.86152 5.73296C4.30026 3.39171 7.57626 2.14707 11.0001 2.14707C14.4239 2.14707 17.638 3.42089 20.1371 5.73336C20.3537 5.93129 20.6252 6.03194 20.9002 6.03194C21.1892 6.03194 21.4781 5.92187 21.694 5.70169C22.1137 5.27375 22.0999 4.56589 21.6634 4.18344Z" fill="black"/>
</svg>
