<svg width="180" height="90" viewBox="0 0 251 74" fill="none" xmlns="http://www.w3.org/2000/svg">
<path d="M95.402 38.9827C96.8953 39.3327 98.0503 40.0561 98.867 41.1527C99.707 42.2261 100.127 43.4744 100.127 44.8977C100.127 47.0677 99.4037 48.7477 97.957 49.9377C96.5337 51.1044 94.4803 51.6877 91.797 51.6877H78.812V26.9077H91.447C93.967 26.9077 95.9503 27.4561 97.397 28.5527C98.8437 29.6494 99.567 31.2477 99.567 33.3477C99.567 34.7944 99.182 36.0194 98.412 37.0227C97.6653 38.0027 96.662 38.6561 95.402 38.9827ZM86.582 36.5677H89.592C90.292 36.5677 90.8053 36.4277 91.132 36.1477C91.482 35.8677 91.657 35.4361 91.657 34.8527C91.657 34.2461 91.482 33.8027 91.132 33.5227C90.8053 33.2194 90.292 33.0677 89.592 33.0677H86.582V36.5677ZM90.117 45.4577C90.817 45.4577 91.3303 45.3294 91.657 45.0727C92.007 44.7927 92.182 44.3494 92.182 43.7427C92.182 42.5527 91.4937 41.9577 90.117 41.9577H86.582V45.4577H90.117ZM123.633 31.9477V51.6877H115.863V48.6777C115.256 49.6111 114.439 50.3694 113.413 50.9527C112.409 51.5361 111.208 51.8277 109.808 51.8277C107.544 51.8277 105.771 51.0694 104.488 49.5527C103.228 48.0361 102.598 45.9827 102.598 43.3927V31.9477H110.333V42.4127C110.333 43.3461 110.578 44.0927 111.068 44.6527C111.581 45.1894 112.258 45.4577 113.098 45.4577C113.961 45.4577 114.638 45.1894 115.128 44.6527C115.618 44.0927 115.863 43.3461 115.863 42.4127V31.9477H123.633ZM131.062 30.3727C129.709 30.3727 128.624 30.0111 127.807 29.2877C126.99 28.5644 126.582 27.6544 126.582 26.5577C126.582 25.4377 126.99 24.5161 127.807 23.7927C128.624 23.0461 129.709 22.6727 131.062 22.6727C132.392 22.6727 133.465 23.0461 134.282 23.7927C135.099 24.5161 135.507 25.4377 135.507 26.5577C135.507 27.6544 135.099 28.5644 134.282 29.2877C133.465 30.0111 132.392 30.3727 131.062 30.3727ZM134.912 31.9477V51.6877H127.142V31.9477H134.912ZM147.206 51.9327C145.34 51.9327 143.683 51.6294 142.236 51.0227C140.813 50.4161 139.681 49.5761 138.841 48.5027C138.001 47.4294 137.523 46.2161 137.406 44.8627H144.861C144.955 45.4461 145.2 45.8777 145.596 46.1577C146.016 46.4377 146.541 46.5777 147.171 46.5777C147.568 46.5777 147.883 46.4961 148.116 46.3327C148.35 46.1461 148.466 45.9244 148.466 45.6677C148.466 45.2244 148.221 44.9094 147.731 44.7227C147.241 44.5361 146.413 44.3261 145.246 44.0927C143.823 43.8127 142.645 43.5094 141.711 43.1827C140.801 42.8561 139.996 42.2961 139.296 41.5027C138.62 40.7094 138.281 39.6127 138.281 38.2127C138.281 36.9994 138.596 35.9027 139.226 34.9227C139.88 33.9194 140.836 33.1377 142.096 32.5777C143.356 31.9944 144.885 31.7027 146.681 31.7027C149.341 31.7027 151.418 32.3561 152.911 33.6627C154.428 34.9694 155.338 36.6727 155.641 38.7727H148.746C148.63 38.2361 148.385 37.8277 148.011 37.5477C147.638 37.2444 147.136 37.0927 146.506 37.0927C146.11 37.0927 145.806 37.1744 145.596 37.3377C145.386 37.4777 145.281 37.6994 145.281 38.0027C145.281 38.3994 145.526 38.7027 146.016 38.9127C146.506 39.0994 147.288 39.2977 148.361 39.5077C149.785 39.7877 150.986 40.1027 151.966 40.4527C152.946 40.8027 153.798 41.4094 154.521 42.2727C155.245 43.1127 155.606 44.2794 155.606 45.7727C155.606 46.9394 155.268 47.9894 154.591 48.9227C153.915 49.8561 152.935 50.5911 151.651 51.1277C150.391 51.6644 148.91 51.9327 147.206 51.9327ZM178.462 31.8077C180.726 31.8077 182.487 32.5661 183.747 34.0827C185.031 35.5994 185.672 37.6527 185.672 40.2427V51.6877H177.937V41.2227C177.937 40.2894 177.681 39.5544 177.167 39.0177C176.677 38.4577 176.012 38.1777 175.172 38.1777C174.309 38.1777 173.632 38.4577 173.142 39.0177C172.652 39.5544 172.407 40.2894 172.407 41.2227V51.6877H164.637V31.9477H172.407V34.9577C173.014 34.0244 173.819 33.2661 174.822 32.6827C175.849 32.0994 177.062 31.8077 178.462 31.8077ZM208.152 41.6427C208.152 42.1794 208.117 42.6927 208.047 43.1827H195.552C195.668 44.8861 196.38 45.7377 197.687 45.7377C198.527 45.7377 199.133 45.3527 199.507 44.5827H207.732C207.452 45.9827 206.857 47.2427 205.947 48.3627C205.06 49.4594 203.928 50.3344 202.552 50.9877C201.198 51.6177 199.705 51.9327 198.072 51.9327C196.112 51.9327 194.362 51.5244 192.822 50.7077C191.305 49.8911 190.115 48.7244 189.252 47.2077C188.412 45.6677 187.992 43.8711 187.992 41.8177C187.992 39.7644 188.412 37.9794 189.252 36.4627C190.115 34.9227 191.305 33.7444 192.822 32.9277C194.362 32.1111 196.112 31.7027 198.072 31.7027C200.032 31.7027 201.77 32.1111 203.287 32.9277C204.827 33.7211 206.017 34.8644 206.857 36.3577C207.72 37.8511 208.152 39.6127 208.152 41.6427ZM200.277 39.7877C200.277 39.1344 200.067 38.6444 199.647 38.3177C199.227 37.9677 198.702 37.7927 198.072 37.7927C196.695 37.7927 195.89 38.4577 195.657 39.7877H200.277ZM219.394 51.9327C217.527 51.9327 215.871 51.6294 214.424 51.0227C213.001 50.4161 211.869 49.5761 211.029 48.5027C210.189 47.4294 209.711 46.2161 209.594 44.8627H217.049C217.142 45.4461 217.387 45.8777 217.784 46.1577C218.204 46.4377 218.729 46.5777 219.359 46.5777C219.756 46.5777 220.071 46.4961 220.304 46.3327C220.537 46.1461 220.654 45.9244 220.654 45.6677C220.654 45.2244 220.409 44.9094 219.919 44.7227C219.429 44.5361 218.601 44.3261 217.434 44.0927C216.011 43.8127 214.832 43.5094 213.899 43.1827C212.989 42.8561 212.184 42.2961 211.484 41.5027C210.807 40.7094 210.469 39.6127 210.469 38.2127C210.469 36.9994 210.784 35.9027 211.414 34.9227C212.067 33.9194 213.024 33.1377 214.284 32.5777C215.544 31.9944 217.072 31.7027 218.869 31.7027C221.529 31.7027 223.606 32.3561 225.099 33.6627C226.616 34.9694 227.526 36.6727 227.829 38.7727H220.934C220.817 38.2361 220.572 37.8277 220.199 37.5477C219.826 37.2444 219.324 37.0927 218.694 37.0927C218.297 37.0927 217.994 37.1744 217.784 37.3377C217.574 37.4777 217.469 37.6994 217.469 38.0027C217.469 38.3994 217.714 38.7027 218.204 38.9127C218.694 39.0994 219.476 39.2977 220.549 39.5077C221.972 39.7877 223.174 40.1027 224.154 40.4527C225.134 40.8027 225.986 41.4094 226.709 42.2727C227.432 43.1127 227.794 44.2794 227.794 45.7727C227.794 46.9394 227.456 47.9894 226.779 48.9227C226.102 49.8561 225.122 50.5911 223.839 51.1277C222.579 51.6644 221.097 51.9327 219.394 51.9327ZM239.662 51.9327C237.796 51.9327 236.139 51.6294 234.692 51.0227C233.269 50.4161 232.137 49.5761 231.297 48.5027C230.457 47.4294 229.979 46.2161 229.862 44.8627H237.317C237.411 45.4461 237.656 45.8777 238.052 46.1577C238.472 46.4377 238.997 46.5777 239.627 46.5777C240.024 46.5777 240.339 46.4961 240.572 46.3327C240.806 46.1461 240.922 45.9244 240.922 45.6677C240.922 45.2244 240.677 44.9094 240.187 44.7227C239.697 44.5361 238.869 44.3261 237.702 44.0927C236.279 43.8127 235.101 43.5094 234.167 43.1827C233.257 42.8561 232.452 42.2961 231.752 41.5027C231.076 40.7094 230.737 39.6127 230.737 38.2127C230.737 36.9994 231.052 35.9027 231.682 34.9227C232.336 33.9194 233.292 33.1377 234.552 32.5777C235.812 31.9944 237.341 31.7027 239.137 31.7027C241.797 31.7027 243.874 32.3561 245.367 33.6627C246.884 34.9694 247.794 36.6727 248.097 38.7727H241.202C241.086 38.2361 240.841 37.8277 240.467 37.5477C240.094 37.2444 239.592 37.0927 238.962 37.0927C238.566 37.0927 238.262 37.1744 238.052 37.3377C237.842 37.4777 237.737 37.6994 237.737 38.0027C237.737 38.3994 237.982 38.7027 238.472 38.9127C238.962 39.0994 239.744 39.2977 240.817 39.5077C242.241 39.7877 243.442 40.1027 244.422 40.4527C245.402 40.8027 246.254 41.4094 246.977 42.2727C247.701 43.1127 248.062 44.2794 248.062 45.7727C248.062 46.9394 247.724 47.9894 247.047 48.9227C246.371 49.8561 245.391 50.5911 244.107 51.1277C242.847 51.6644 241.366 51.9327 239.662 51.9327Z" fill="white"/>
<path d="M51.7501 6.87305H47.5831C46.0808 6.87305 44.8632 7.91166 44.8632 9.19285V22.1114C44.8632 23.3926 46.0808 24.4312 47.5831 24.4312H51.7501C53.2524 24.4312 54.47 23.3926 54.47 22.1114V9.19285C54.47 7.91166 53.2524 6.87305 51.7501 6.87305Z" fill="white"/>
<path d="M36.1686 72.7761V60.5376H53.8321L38.5116 73.6049C38.3196 73.7688 38.0749 73.8802 37.8085 73.9253C37.5422 73.9703 37.2661 73.9473 37.0152 73.8586C36.7644 73.7698 36.55 73.6194 36.3993 73.4267C36.2486 73.2343 36.1683 73.0077 36.1686 72.7761Z" fill="white"/>
<path d="M54.7785 59.7772H36.1686V61.2442H52.9692L54.7785 59.7772Z" fill="white"/>
<path d="M58.6044 23.5413L33.1846 1.85872C32.4972 1.27528 31.5668 0.947754 30.597 0.947754C29.6272 0.947754 28.6968 1.27528 28.0094 1.85872L2.59002 23.5413C1.03886 25.0127 0.124872 26.8926 0 28.8685V32.6878C13.8875 41.5002 30.7423 46.2485 48.0517 46.2248C52.4538 46.2255 56.8487 45.9203 61.1928 45.3123V28.8685C61.0665 26.8932 60.1535 25.0138 58.6044 23.5413Z" fill="white"/>
<path d="M48.0525 49.7366C30.7432 49.76 13.8884 45.0117 0.000854492 36.1996V56.8305C0.00399572 57.6576 0.39056 58.4499 1.07617 59.0345C1.76177 59.6194 2.69074 59.949 3.66032 59.9517H57.5346C58.504 59.949 59.4328 59.6191 60.1187 59.0345C60.8041 58.4495 61.1905 57.6573 61.1937 56.8305V48.8242C56.8496 49.4322 52.4546 49.7373 48.0525 49.7366Z" fill="white"/>
</svg>
