<svg width="165" height="50" viewBox="0 0 165 50" fill="none" xmlns="http://www.w3.org/2000/svg">
<path d="M33.8271 4.05844H31.1033C30.1213 4.05844 29.3254 4.76982 29.3254 5.64735V14.4957C29.3254 15.3732 30.1213 16.0846 31.1033 16.0846H33.8271C34.8091 16.0846 35.605 15.3732 35.605 14.4957V5.64735C35.605 4.76982 34.8091 4.05844 33.8271 4.05844Z" fill="#41529F"/>
<path d="M23.6421 49.1976V40.815H35.1881L25.1736 49.7652C25.0481 49.8775 24.8882 49.9538 24.7141 49.9847C24.54 50.0156 24.3595 49.9998 24.1955 49.939C24.0315 49.8782 23.8914 49.7752 23.7929 49.6432C23.6944 49.5114 23.6419 49.3562 23.6421 49.1976Z" fill="#41529F"/>
<path d="M35.8067 40.2942H23.6421V41.2989H34.624L35.8067 40.2942Z" fill="#41529F"/>
<path d="M38.3075 15.4751L21.6916 0.623951C21.2422 0.224336 20.6341 0 20.0001 0C19.3662 0 18.758 0.224336 18.3087 0.623951L1.693 15.4751C0.679065 16.4829 0.081624 17.7705 0 19.1238V21.7397C9.07774 27.7757 20.0951 31.028 31.4096 31.0117C34.2871 31.0122 37.1599 30.8032 39.9995 30.3867V19.1238C39.9169 17.7709 39.3201 16.4836 38.3075 15.4751Z" fill="#41529F"/>
<path d="M31.4102 33.4171C20.0957 33.4331 9.07834 30.1808 0.000549316 24.1451V38.2759C0.00260262 38.8424 0.255286 39.385 0.703441 39.7855C1.15159 40.1861 1.75883 40.4118 2.39261 40.4137H37.6082C38.2419 40.4118 38.849 40.1859 39.2973 39.7855C39.7454 39.3848 39.998 38.8422 40 38.2759V32.7921C37.1604 33.2085 34.2876 33.4176 31.4102 33.4171Z" fill="#41529F"/>
<path d="M58.576 24.288C59.6 24.528 60.392 25.024 60.952 25.776C61.528 26.512 61.816 27.368 61.816 28.344C61.816 29.832 61.32 30.984 60.328 31.8C59.352 32.6 57.944 33 56.104 33H47.2V16.008H55.864C57.592 16.008 58.952 16.384 59.944 17.136C60.936 17.888 61.432 18.984 61.432 20.424C61.432 21.416 61.168 22.256 60.64 22.944C60.128 23.616 59.44 24.064 58.576 24.288ZM52.528 22.632H54.592C55.072 22.632 55.424 22.536 55.648 22.344C55.888 22.152 56.008 21.856 56.008 21.456C56.008 21.04 55.888 20.736 55.648 20.544C55.424 20.336 55.072 20.232 54.592 20.232H52.528V22.632ZM54.952 28.728C55.432 28.728 55.784 28.64 56.008 28.464C56.248 28.272 56.368 27.968 56.368 27.552C56.368 26.736 55.896 26.328 54.952 26.328H52.528V28.728H54.952ZM77.9343 19.464V33H72.6063V30.936C72.1903 31.576 71.6303 32.096 70.9263 32.496C70.2383 32.896 69.4143 33.096 68.4543 33.096C66.9023 33.096 65.6863 32.576 64.8063 31.536C63.9423 30.496 63.5103 29.088 63.5103 27.312V19.464H68.8143V26.64C68.8143 27.28 68.9823 27.792 69.3183 28.176C69.6703 28.544 70.1343 28.728 70.7103 28.728C71.3023 28.728 71.7663 28.544 72.1023 28.176C72.4383 27.792 72.6063 27.28 72.6063 26.64V19.464H77.9343ZM83.0286 18.384C82.1006 18.384 81.3566 18.136 80.7966 17.64C80.2366 17.144 79.9566 16.52 79.9566 15.768C79.9566 15 80.2366 14.368 80.7966 13.872C81.3566 13.36 82.1006 13.104 83.0286 13.104C83.9406 13.104 84.6766 13.36 85.2366 13.872C85.7966 14.368 86.0766 15 86.0766 15.768C86.0766 16.52 85.7966 17.144 85.2366 17.64C84.6766 18.136 83.9406 18.384 83.0286 18.384ZM85.6686 19.464V33H80.3406V19.464H85.6686ZM94.099 33.168C92.819 33.168 91.683 32.96 90.691 32.544C89.715 32.128 88.939 31.552 88.363 30.816C87.787 30.08 87.459 29.248 87.379 28.32H92.491C92.555 28.72 92.723 29.016 92.995 29.208C93.283 29.4 93.643 29.496 94.075 29.496C94.347 29.496 94.563 29.44 94.723 29.328C94.883 29.2 94.963 29.048 94.963 28.872C94.963 28.568 94.795 28.352 94.459 28.224C94.123 28.096 93.555 27.952 92.755 27.792C91.779 27.6 90.971 27.392 90.331 27.168C89.707 26.944 89.155 26.56 88.675 26.016C88.211 25.472 87.979 24.72 87.979 23.76C87.979 22.928 88.195 22.176 88.627 21.504C89.075 20.816 89.731 20.28 90.595 19.896C91.459 19.496 92.507 19.296 93.739 19.296C95.563 19.296 96.987 19.744 98.011 20.64C99.051 21.536 99.675 22.704 99.883 24.144H95.155C95.075 23.776 94.907 23.496 94.651 23.304C94.395 23.096 94.051 22.992 93.619 22.992C93.347 22.992 93.139 23.048 92.995 23.16C92.851 23.256 92.779 23.408 92.779 23.616C92.779 23.888 92.947 24.096 93.283 24.24C93.619 24.368 94.155 24.504 94.891 24.648C95.867 24.84 96.691 25.056 97.363 25.296C98.035 25.536 98.619 25.952 99.115 26.544C99.611 27.12 99.859 27.92 99.859 28.944C99.859 29.744 99.627 30.464 99.163 31.104C98.699 31.744 98.027 32.248 97.147 32.616C96.283 32.984 95.267 33.168 94.099 33.168ZM115.532 19.368C117.084 19.368 118.292 19.888 119.156 20.928C120.036 21.968 120.476 23.376 120.476 25.152V33H115.172V25.824C115.172 25.184 114.996 24.68 114.644 24.312C114.308 23.928 113.852 23.736 113.276 23.736C112.684 23.736 112.22 23.928 111.884 24.312C111.548 24.68 111.38 25.184 111.38 25.824V33H106.052V19.464H111.38V21.528C111.796 20.888 112.348 20.368 113.036 19.968C113.74 19.568 114.572 19.368 115.532 19.368ZM135.89 26.112C135.89 26.48 135.866 26.832 135.818 27.168H127.25C127.33 28.336 127.818 28.92 128.714 28.92C129.29 28.92 129.706 28.656 129.962 28.128H135.602C135.41 29.088 135.002 29.952 134.378 30.72C133.77 31.472 132.994 32.072 132.05 32.52C131.122 32.952 130.098 33.168 128.978 33.168C127.634 33.168 126.434 32.888 125.378 32.328C124.338 31.768 123.522 30.968 122.93 29.928C122.354 28.872 122.066 27.64 122.066 26.232C122.066 24.824 122.354 23.6 122.93 22.56C123.522 21.504 124.338 20.696 125.378 20.136C126.434 19.576 127.634 19.296 128.978 19.296C130.322 19.296 131.514 19.576 132.554 20.136C133.61 20.68 134.426 21.464 135.002 22.488C135.594 23.512 135.89 24.72 135.89 26.112ZM130.49 24.84C130.49 24.392 130.346 24.056 130.058 23.832C129.77 23.592 129.41 23.472 128.978 23.472C128.034 23.472 127.482 23.928 127.322 24.84H130.49ZM143.599 33.168C142.319 33.168 141.183 32.96 140.191 32.544C139.215 32.128 138.439 31.552 137.863 30.816C137.287 30.08 136.959 29.248 136.879 28.32H141.991C142.055 28.72 142.223 29.016 142.495 29.208C142.783 29.4 143.143 29.496 143.575 29.496C143.847 29.496 144.063 29.44 144.223 29.328C144.383 29.2 144.463 29.048 144.463 28.872C144.463 28.568 144.295 28.352 143.959 28.224C143.623 28.096 143.055 27.952 142.255 27.792C141.279 27.6 140.471 27.392 139.831 27.168C139.207 26.944 138.655 26.56 138.175 26.016C137.711 25.472 137.479 24.72 137.479 23.76C137.479 22.928 137.695 22.176 138.127 21.504C138.575 20.816 139.231 20.28 140.095 19.896C140.959 19.496 142.007 19.296 143.239 19.296C145.063 19.296 146.487 19.744 147.511 20.64C148.551 21.536 149.175 22.704 149.383 24.144H144.655C144.575 23.776 144.407 23.496 144.151 23.304C143.895 23.096 143.551 22.992 143.119 22.992C142.847 22.992 142.639 23.048 142.495 23.16C142.351 23.256 142.279 23.408 142.279 23.616C142.279 23.888 142.447 24.096 142.783 24.24C143.119 24.368 143.655 24.504 144.391 24.648C145.367 24.84 146.191 25.056 146.863 25.296C147.535 25.536 148.119 25.952 148.615 26.544C149.111 27.12 149.359 27.92 149.359 28.944C149.359 29.744 149.127 30.464 148.663 31.104C148.199 31.744 147.527 32.248 146.647 32.616C145.783 32.984 144.767 33.168 143.599 33.168ZM157.497 33.168C156.217 33.168 155.081 32.96 154.089 32.544C153.113 32.128 152.337 31.552 151.761 30.816C151.185 30.08 150.857 29.248 150.777 28.32H155.889C155.953 28.72 156.121 29.016 156.393 29.208C156.681 29.4 157.041 29.496 157.473 29.496C157.745 29.496 157.961 29.44 158.121 29.328C158.281 29.2 158.361 29.048 158.361 28.872C158.361 28.568 158.193 28.352 157.857 28.224C157.521 28.096 156.953 27.952 156.153 27.792C155.177 27.6 154.369 27.392 153.729 27.168C153.105 26.944 152.553 26.56 152.073 26.016C151.609 25.472 151.377 24.72 151.377 23.76C151.377 22.928 151.593 22.176 152.025 21.504C152.473 20.816 153.129 20.28 153.993 19.896C154.857 19.496 155.905 19.296 157.137 19.296C158.961 19.296 160.385 19.744 161.409 20.64C162.449 21.536 163.073 22.704 163.281 24.144H158.553C158.473 23.776 158.305 23.496 158.049 23.304C157.793 23.096 157.449 22.992 157.017 22.992C156.745 22.992 156.537 23.048 156.393 23.16C156.249 23.256 156.177 23.408 156.177 23.616C156.177 23.888 156.345 24.096 156.681 24.24C157.017 24.368 157.553 24.504 158.289 24.648C159.265 24.84 160.089 25.056 160.761 25.296C161.433 25.536 162.017 25.952 162.513 26.544C163.009 27.12 163.257 27.92 163.257 28.944C163.257 29.744 163.025 30.464 162.561 31.104C162.097 31.744 161.425 32.248 160.545 32.616C159.681 32.984 158.665 33.168 157.497 33.168Z" fill="#41529F"/>
</svg>
