<svg width="18" height="18" viewBox="0 0 18 18" fill="none" xmlns="http://www.w3.org/2000/svg">
<path d="M9 14.7273C9.43399 14.7273 9.85021 14.8997 10.1571 15.2066C10.464 15.5134 10.6364 15.9296 10.6364 16.3636C10.6364 16.7976 10.464 17.2138 10.1571 17.5207C9.85021 17.8276 9.43399 18 9 18C8.56601 18 8.14979 17.8276 7.84292 17.5207C7.53604 17.2138 7.36364 16.7976 7.36364 16.3636C7.36364 15.9296 7.53604 15.5134 7.84292 15.2066C8.14979 14.8997 8.56601 14.7273 9 14.7273ZM16.3636 14.7273C16.7976 14.7273 17.2138 14.8997 17.5207 15.2066C17.8276 15.5134 18 15.9296 18 16.3636C18 16.7976 17.8276 17.2138 17.5207 17.5207C17.2138 17.8276 16.7976 18 16.3636 18C15.9296 18 15.5134 17.8276 15.2066 17.5207C14.8997 17.2138 14.7273 16.7976 14.7273 16.3636C14.7273 15.9296 14.8997 15.5134 15.2066 15.2066C15.5134 14.8997 15.9296 14.7273 16.3636 14.7273V14.7273ZM1.63636 14.7273C2.07035 14.7273 2.48657 14.8997 2.79345 15.2066C3.10033 15.5134 3.27273 15.9296 3.27273 16.3636C3.27273 16.7976 3.10033 17.2138 2.79345 17.5207C2.48657 17.8276 2.07035 18 1.63636 18C1.20237 18 0.786157 17.8276 0.47928 17.5207C0.172402 17.2138 0 16.7976 0 16.3636C0 15.9296 0.172402 15.5134 0.47928 15.2066C0.786157 14.8997 1.20237 14.7273 1.63636 14.7273V14.7273ZM9 7.36364C9.43399 7.36364 9.85021 7.53604 10.1571 7.84292C10.464 8.14979 10.6364 8.56601 10.6364 9C10.6364 9.43399 10.464 9.85021 10.1571 10.1571C9.85021 10.464 9.43399 10.6364 9 10.6364C8.56601 10.6364 8.14979 10.464 7.84292 10.1571C7.53604 9.85021 7.36364 9.43399 7.36364 9C7.36364 8.56601 7.53604 8.14979 7.84292 7.84292C8.14979 7.53604 8.56601 7.36364 9 7.36364V7.36364ZM16.3636 7.36364C16.7976 7.36364 17.2138 7.53604 17.5207 7.84292C17.8276 8.14979 18 8.56601 18 9C18 9.43399 17.8276 9.85021 17.5207 10.1571C17.2138 10.464 16.7976 10.6364 16.3636 10.6364C15.9296 10.6364 15.5134 10.464 15.2066 10.1571C14.8997 9.85021 14.7273 9.43399 14.7273 9C14.7273 8.56601 14.8997 8.14979 15.2066 7.84292C15.5134 7.53604 15.9296 7.36364 16.3636 7.36364V7.36364ZM1.63636 7.36364C2.07035 7.36364 2.48657 7.53604 2.79345 7.84292C3.10033 8.14979 3.27273 8.56601 3.27273 9C3.27273 9.43399 3.10033 9.85021 2.79345 10.1571C2.48657 10.464 2.07035 10.6364 1.63636 10.6364C1.20237 10.6364 0.786157 10.464 0.47928 10.1571C0.172402 9.85021 0 9.43399 0 9C0 8.56601 0.172402 8.14979 0.47928 7.84292C0.786157 7.53604 1.20237 7.36364 1.63636 7.36364V7.36364ZM9 0C9.43399 0 9.85021 0.172402 10.1571 0.47928C10.464 0.786157 10.6364 1.20237 10.6364 1.63636C10.6364 2.07035 10.464 2.48657 10.1571 2.79345C9.85021 3.10033 9.43399 3.27273 9 3.27273C8.56601 3.27273 8.14979 3.10033 7.84292 2.79345C7.53604 2.48657 7.36364 2.07035 7.36364 1.63636C7.36364 1.20237 7.53604 0.786157 7.84292 0.47928C8.14979 0.172402 8.56601 0 9 0ZM16.3636 0C16.7976 0 17.2138 0.172402 17.5207 0.47928C17.8276 0.786157 18 1.20237 18 1.63636C18 2.07035 17.8276 2.48657 17.5207 2.79345C17.2138 3.10033 16.7976 3.27273 16.3636 3.27273C15.9296 3.27273 15.5134 3.10033 15.2066 2.79345C14.8997 2.48657 14.7273 2.07035 14.7273 1.63636C14.7273 1.20237 14.8997 0.786157 15.2066 0.47928C15.5134 0.172402 15.9296 0 16.3636 0V0ZM1.63636 0C2.07035 0 2.48657 0.172402 2.79345 0.47928C3.10033 0.786157 3.27273 1.20237 3.27273 1.63636C3.27273 2.07035 3.10033 2.48657 2.79345 2.79345C2.48657 3.10033 2.07035 3.27273 1.63636 3.27273C1.20237 3.27273 0.786157 3.10033 0.47928 2.79345C0.172402 2.48657 0 2.07035 0 1.63636C0 1.20237 0.172402 0.786157 0.47928 0.47928C0.786157 0.172402 1.20237 0 1.63636 0V0Z" fill="black"/>
</svg>
