<svg width="20" height="21" viewBox="0 0 20 21" fill="white" xmlns="http://www.w3.org/2000/svg">
<g clip-path="url(#clip0_396_1370)">
<path d="M20 10.4185C20 4.90347 15.52 0.428467 10 0.428467C4.48 0.428467 0 4.90347 0 10.4185C0 13.456 1.38 16.1935 3.54 18.031C3.56 18.051 3.58 18.051 3.58 18.071C3.76 18.211 3.94 18.351 4.14 18.491C4.24 18.551 4.32 18.6297 4.42 18.7097C6.07258 19.8302 8.02339 20.4289 10.02 20.4285C12.0166 20.4289 13.9674 19.8302 15.62 18.7097C15.72 18.6497 15.8 18.571 15.9 18.5097C16.08 18.371 16.28 18.231 16.46 18.091C16.48 18.071 16.5 18.071 16.5 18.051C18.62 16.1922 20 13.456 20 10.4185V10.4185ZM10 19.1697C8.12 19.1697 6.4 18.5697 4.98 17.571C5 17.411 5.04 17.2522 5.08 17.0922C5.19917 16.6586 5.37396 16.2422 5.6 15.8535C5.82 15.4735 6.08 15.1335 6.4 14.8335C6.7 14.5335 7.06 14.2547 7.42 14.0347C7.8 13.8147 8.2 13.6547 8.64 13.5347C9.08342 13.4152 9.54075 13.3551 10 13.356C11.3633 13.3463 12.6765 13.8693 13.66 14.8135C14.12 15.2735 14.48 15.8135 14.74 16.4322C14.88 16.7922 14.98 17.1722 15.04 17.571C13.564 18.6087 11.8043 19.1669 10 19.1697ZM6.94 9.91972C6.76378 9.51624 6.67516 9.07997 6.68 8.63972C6.68 8.20097 6.76 7.76097 6.94 7.36097C7.12 6.96097 7.36 6.60222 7.66 6.30222C7.96 6.00222 8.32 5.76347 8.72 5.58347C9.12 5.40347 9.56 5.32347 10 5.32347C10.46 5.32347 10.88 5.40347 11.28 5.58347C11.68 5.76347 12.04 6.00347 12.34 6.30222C12.64 6.60222 12.88 6.96222 13.06 7.36097C13.24 7.76097 13.32 8.20097 13.32 8.63972C13.32 9.09972 13.24 9.51972 13.06 9.91847C12.8863 10.3125 12.6423 10.6717 12.34 10.9785C12.0332 11.2803 11.674 11.5239 11.28 11.6972C10.4535 12.0369 9.52647 12.0369 8.7 11.6972C8.30601 11.5239 7.94684 11.2803 7.64 10.9785C7.33727 10.6762 7.09912 10.3156 6.94 9.91847V9.91972ZM16.22 16.5522C16.22 16.5122 16.2 16.4922 16.2 16.4522C16.0033 15.8265 15.7134 15.234 15.34 14.6947C14.9663 14.1514 14.507 13.6723 13.98 13.276C13.5775 12.9732 13.1413 12.7182 12.68 12.516C12.8899 12.3775 13.0843 12.217 13.26 12.0372C13.5582 11.7428 13.82 11.4138 14.04 11.0572C14.4829 10.3295 14.7117 9.49158 14.7 8.63972C14.7062 8.00911 14.5837 7.38387 14.34 6.80222C14.0994 6.24177 13.7531 5.73291 13.32 5.30347C12.8876 4.87851 12.3786 4.5392 11.82 4.30347C11.2374 4.06021 10.6113 3.93815 9.98 3.94472C9.34859 3.93854 8.72253 4.06103 8.14 4.30472C7.57657 4.53995 7.06639 4.88645 6.64 5.32347C6.21505 5.75545 5.87574 6.26399 5.64 6.82222C5.39631 7.40387 5.27381 8.02911 5.28 8.65972C5.28 9.09972 5.34 9.51972 5.46 9.91847C5.58 10.3385 5.74 10.7185 5.96 11.0772C6.16 11.4372 6.44 11.7572 6.74 12.0572C6.92 12.2372 7.12 12.396 7.34 12.536C6.87729 12.7435 6.4409 13.0054 6.04 13.316C5.52 13.716 5.06 14.1947 4.68 14.7147C4.30282 15.2518 4.0126 15.8449 3.82 16.4722C3.8 16.5122 3.8 16.5522 3.8 16.5722C2.22 14.9735 1.24 12.816 1.24 10.4185C1.24 5.60347 5.18 1.66722 10 1.66722C14.82 1.66722 18.76 5.60347 18.76 10.4185C18.7574 12.7184 17.8441 14.9237 16.22 16.5522V16.5522Z" fill="#000"/>
</g>
<defs>
<clipPath id="clip0_396_1370">
<rect width="20" height="20" fill="white" transform="translate(0 0.428467)"/>
</clipPath>
</defs>
</svg>
