<svg width="27" height="18" viewBox="0 0 27 18" fill="none" xmlns="http://www.w3.org/2000/svg">
<path d="M22.6476 0.606338L20.9768 1.78533L13.863 6.56024L6.7491 1.73817L5.07833 0.559179C4.68472 0.265074 4.20424 0.0817352 3.6964 0.0318757C3.18856 -0.0179837 2.67569 0.0678276 2.22131 0.278678C1.76694 0.489529 1.39104 0.816153 1.14018 1.21809C0.889323 1.62002 0.774528 2.0796 0.810021 2.53988V16.2044C0.810021 16.6296 0.99705 17.0375 1.32996 17.3382C1.66288 17.6389 2.11441 17.8078 2.58522 17.8078H6.7491V8.706L13.863 13.5281L20.9768 8.706V17.8078H25.1407C25.6115 17.8078 26.063 17.6389 26.3959 17.3382C26.7289 17.0375 26.9159 16.6296 26.9159 16.2044V2.53988C26.9404 2.08357 26.8176 1.63065 26.5625 1.23618C26.3073 0.841713 25.9308 0.522685 25.4787 0.317876C25.0266 0.113066 24.5183 0.0312972 24.0157 0.0825073C23.5131 0.133717 23.0378 0.315702 22.6476 0.606338Z" fill="#fff"/>
</svg>
