<svg width="27" height="27" viewBox="0 0 27 27" fill="none" xmlns="http://www.w3.org/2000/svg">
<path d="M15.6444 11.3556C14.5068 10.2185 12.9641 9.57971 11.3556 9.57971C9.74714 9.57971 8.20449 10.2185 7.06688 11.3556L2.77674 15.6444C1.63911 16.782 1 18.325 1 19.9338C1 21.5427 1.63911 23.0856 2.77674 24.2233C3.91437 25.3609 5.45733 26 7.06618 26C8.67504 26 10.218 25.3609 11.3556 24.2233L13.5 22.0789" stroke="black" stroke-width="2" stroke-linecap="round" stroke-linejoin="round"/>
<path d="M11.3555 15.6444C12.4931 16.7815 14.0357 17.4203 15.6442 17.4203C17.2527 17.4203 18.7954 16.7815 19.933 15.6444L24.2231 11.3556C25.3607 10.218 25.9998 8.67504 25.9998 7.06618C25.9998 5.45733 25.3607 3.91437 24.2231 2.77674C23.0855 1.63911 21.5425 1 19.9337 1C18.3248 1 16.7818 1.63911 15.6442 2.77674L13.4998 4.92112" stroke="black" stroke-width="2" stroke-linecap="round" stroke-linejoin="round"/>
</svg>
