<svg width="25" height="25" viewBox="0 0 25 25" fill="none" xmlns="http://www.w3.org/2000/svg">
<path d="M16.6677 17.7673L18.8205 15.6137C19.1104 15.3273 19.4773 15.1312 19.8765 15.0492C20.2757 14.9673 20.6901 15.0031 21.0693 15.1522L23.693 16.2002C24.0762 16.3558 24.4049 16.6215 24.6375 16.9637C24.8701 17.3059 24.9962 17.7093 25 18.1231V22.9302C24.9978 23.2117 24.9386 23.4898 24.8261 23.7479C24.7136 24.0059 24.5501 24.2384 24.3454 24.4316C24.1406 24.6247 23.899 24.7744 23.6349 24.8716C23.3708 24.9688 23.0898 25.0116 22.8088 24.9973C4.424 23.8532 0.714362 8.27798 0.0127987 2.31709C-0.0197684 2.02437 0.0099873 1.72807 0.100108 1.44768C0.190229 1.16729 0.338672 0.909164 0.535672 0.690287C0.732673 0.471411 0.973765 0.296742 1.24309 0.177774C1.51241 0.0588048 1.80386 -0.00176823 2.09827 3.92929e-05H6.74012C7.15434 0.00126588 7.55872 0.126436 7.90125 0.359451C8.24378 0.592466 8.5088 0.922669 8.66221 1.30759L9.70975 3.9323C9.86377 4.31021 9.90306 4.72514 9.82272 5.12526C9.74239 5.52538 9.54599 5.89295 9.25806 6.18206L7.10532 8.33567C7.10532 8.33567 8.34507 16.729 16.6677 17.7673Z" fill="black"/>
</svg>
